<?xml version="1.0" encoding="iso-8859-1"?>
<!-- Generator: Adobe Illustrator 18.1.1, SVG Export Plug-In . SVG Version: 6.00 Build 0)  -->
<svg xmlns="http://www.w3.org/2000/svg" xmlns:xlink="http://www.w3.org/1999/xlink" version="1.1" id="Capa_1" x="0px" y="0px" viewBox="0 0 32.865 32.865" style="enable-background:new 0 0 32.865 32.865;" xml:space="preserve" width="50px" height="50px">
<g>
	<path d="M21.96,0.016L8.72,1.57C7.454,1.72,6.552,2.867,6.7,4.131l1.578,13.442l1.881,1.191L8.601,5.504L22.99,3.816l1.393,11.865   l1.797,0.495L24.52,2.039C24.37,0.775,23.226-0.133,21.96,0.016z M18.684,2.76l-6.14,0.72l-0.078-0.668l6.139-0.723L18.684,2.76z    M20.757,2.8c-0.324,0.038-0.617-0.195-0.654-0.519c-0.041-0.323,0.193-0.616,0.516-0.654c0.324-0.038,0.617,0.193,0.656,0.516   C21.311,2.468,21.081,2.762,20.757,2.8z" fill="#3c91cf"/>
	<path d="M24.452,18.426v8.426H9.968v-7.521H9.356l-1.121-2.309v13.537c0,1.271,1.033,2.306,2.309,2.306h13.328   c1.275,0,2.307-1.034,2.307-2.306V17.723l-0.66,0.704L24.452,18.426L24.452,18.426z M20.022,30.405h-5.627v-1.732h5.627   C20.022,28.673,20.022,30.405,20.022,30.405z" fill="#3c91cf"/>
	<polygon points="11.091,19.567 14.683,17.982 21.587,18.334 24.548,17.076 24.382,15.682 21.481,17.436 15.409,16.736    10.159,18.765 10.265,19.665  " fill="#3c91cf"/>
	<g>
	</g>
	<g>
	</g>
	<g>
	</g>
	<g>
	</g>
	<g>
	</g>
	<g>
	</g>
	<g>
	</g>
	<g>
	</g>
	<g>
	</g>
	<g>
	</g>
	<g>
	</g>
	<g>
	</g>
	<g>
	</g>
	<g>
	</g>
	<g>
	</g>
</g>
<g>
</g>
<g>
</g>
<g>
</g>
<g>
</g>
<g>
</g>
<g>
</g>
<g>
</g>
<g>
</g>
<g>
</g>
<g>
</g>
<g>
</g>
<g>
</g>
<g>
</g>
<g>
</g>
<g>
</g>
</svg>
