<?xml version="1.0" encoding="iso-8859-1"?>
<!-- Generator: Adobe Illustrator 19.0.0, SVG Export Plug-In . SVG Version: 6.00 Build 0)  -->
<svg xmlns="http://www.w3.org/2000/svg" xmlns:xlink="http://www.w3.org/1999/xlink" version="1.1" id="Capa_1" x="0px" y="0px" viewBox="0 0 512 512" style="enable-background:new 0 0 512 512;" xml:space="preserve" width="50px" height="50px">
<g>
	<g>
		<path d="M490.667,138.667c-10.667,0-23.467,0-29.867,10.667c-17.067,29.867-57.6,40.533-87.467,23.467    c-10.667-6.4-17.067-12.8-23.467-23.467c-8.533-12.8-29.867-12.8-38.4,0C294.4,179.2,253.867,189.867,224,172.8    c-10.667-6.4-17.067-12.8-23.467-23.467c-8.533-12.8-29.867-12.8-38.4,0c-17.067,29.867-57.6,40.533-87.467,23.467    C64,166.4,57.6,160,51.2,149.333C40.533,130.133,0,136.533,0,160v320c0,12.8,8.533,21.333,21.333,21.333h469.333    c12.8,0,21.333-8.533,21.333-21.333V160C512,147.2,503.467,138.667,490.667,138.667z M469.333,352    c-42.667,32-100.267,29.867-138.667-8.533C290.133,384,224,386.133,183.467,345.6c0,0,0,0-2.133-2.133    c-38.4,38.4-96,40.533-138.667,8.533V245.333c42.667,32,100.267,29.867,138.667-8.533c40.533,40.533,108.8,40.533,149.333,0    c38.4,38.4,96,40.533,138.667,8.533V352z" fill="#3c91cf"/>
	</g>
</g>
<g>
	<g>
		<circle cx="256" cy="74.667" r="21.333" fill="#3c91cf"/>
	</g>
</g>
<g>
	<g>
		<circle cx="405.333" cy="117.333" r="21.333" fill="#3c91cf"/>
	</g>
</g>
<g>
	<g>
		<circle cx="384" cy="32" r="21.333" fill="#3c91cf"/>
	</g>
</g>
<g>
</g>
<g>
</g>
<g>
</g>
<g>
</g>
<g>
</g>
<g>
</g>
<g>
</g>
<g>
</g>
<g>
</g>
<g>
</g>
<g>
</g>
<g>
</g>
<g>
</g>
<g>
</g>
<g>
</g>
</svg>
