<?xml version="1.0" encoding="iso-8859-1"?>
<!-- Generator: Adobe Illustrator 18.0.0, SVG Export Plug-In . SVG Version: 6.00 Build 0)  -->
<!DOCTYPE svg PUBLIC "-//W3C//DTD SVG 1.1//EN" "http://www.w3.org/Graphics/SVG/1.1/DTD/svg11.dtd">
<svg xmlns="http://www.w3.org/2000/svg" xmlns:xlink="http://www.w3.org/1999/xlink" version="1.1" id="Capa_1" x="0px" y="0px" viewBox="0 0 394.518 394.518" style="enable-background:new 0 0 394.518 394.518;" xml:space="preserve" width="50px" height="50px">
<path d="M321.34,136.846V77.515c0-6.579-3.166-12.432-8.052-16.119v-6.858C313.288,24.466,288.822,0,258.75,0H127.715  C97.643,0,73.177,24.466,73.177,54.538v285.441c0,30.072,24.466,54.538,54.538,54.538H258.75c30.073,0,54.539-24.466,54.539-54.538  V230.645c4.887-3.688,8.052-9.54,8.052-16.12v-17.738c0-6.579-3.166-12.433-8.052-16.119v-27.704  C318.175,149.278,321.34,143.425,321.34,136.846z M192.993,364.746c-12.15,0-22-9.85-22-22c0-12.15,9.85-22,22-22  c12.15,0,22,9.85,22,22C214.993,354.897,205.143,364.746,192.993,364.746z M285.764,306.134H100.702V88.384h185.062V306.134z" fill="#3c91cf"/>
<g>
</g>
<g>
</g>
<g>
</g>
<g>
</g>
<g>
</g>
<g>
</g>
<g>
</g>
<g>
</g>
<g>
</g>
<g>
</g>
<g>
</g>
<g>
</g>
<g>
</g>
<g>
</g>
<g>
</g>
</svg>
